<?xml version="1.0" standalone="no"?>
<!DOCTYPE svg PUBLIC "-//W3C//DTD SVG 20010904//EN"
 "http://www.w3.org/TR/2001/REC-SVG-20010904/DTD/svg10.dtd">
<svg version="1.0" xmlns="http://www.w3.org/2000/svg"
 width="50.000000pt" height="50.000000pt" viewBox="0 0 50.000000 50.000000"
 preserveAspectRatio="xMidYMid meet">

<g transform="translate(0.000000,50.000000) scale(0.100000,-0.100000)"
fill="#000000" stroke="none">
<path d="M103 481 c-4 -14 -15 -21 -42 -23 -35 -3 -36 -4 -39 -45 l-3 -43 231
0 231 0 -3 43 c-3 41 -4 42 -39 45 -27 2 -38 9 -42 23 -7 26 -47 25 -54 -1 -5
-18 -14 -20 -93 -20 -79 0 -88 2 -93 20 -7 26 -47 27 -54 1z m37 -31 c0 -16
-4 -30 -10 -30 -5 0 -10 14 -10 30 0 17 5 30 10 30 6 0 10 -13 10 -30z m240 0
c0 -16 -4 -30 -10 -30 -5 0 -10 14 -10 30 0 17 5 30 10 30 6 0 10 -13 10 -30z"/>
<path d="M22 188 l3 -163 165 -6 c91 -4 179 -10 196 -14 64 -14 126 49 109
112 -4 16 -10 74 -12 131 l-4 102 -230 0 -229 0 2 -162z m282 42 l29 0 -22
-24 c-17 -18 -22 -32 -17 -50 7 -29 -1 -33 -29 -12 -17 12 -22 12 -39 0 -30
-21 -36 -17 -30 16 5 24 1 34 -17 50 l-24 19 31 1 c26 0 34 6 45 32 l13 31 15
-31 c12 -25 21 -32 45 -32z m151 -75 c50 -49 15 -135 -55 -135 -41 0 -80 39
-80 80 0 70 86 105 135 55z"/>
<path d="M413 112 c-19 -24 -24 -25 -42 -14 -17 10 -21 10 -21 -1 0 -6 10 -18
22 -26 20 -12 24 -11 50 20 15 19 28 37 28 42 0 14 -15 5 -37 -21z"/>
</g>
</svg>
