<?xml version="1.0" standalone="no"?>
<!DOCTYPE svg PUBLIC "-//W3C//DTD SVG 20010904//EN"
 "http://www.w3.org/TR/2001/REC-SVG-20010904/DTD/svg10.dtd">
<svg version="1.0" xmlns="http://www.w3.org/2000/svg"
 width="50.000000pt" height="50.000000pt" viewBox="0 0 50.000000 50.000000"
 preserveAspectRatio="xMidYMid meet">

<g transform="translate(0.000000,50.000000) scale(0.100000,-0.100000)"
fill="#000000" stroke="none">
<path d="M140 310 c52 -49 102 -90 110 -90 8 0 58 40 110 90 l95 89 -205 0
-205 0 95 -89z"/>
<path d="M20 249 l0 -123 65 64 c36 35 65 65 65 66 0 1 -29 27 -65 59 l-65 57
0 -123z"/>
<path d="M422 321 l-54 -49 34 -7 c18 -4 43 -13 56 -21 l22 -14 0 70 c0 38 -1
70 -2 70 -2 -1 -27 -23 -56 -49z"/>
<path d="M110 165 l-64 -65 90 0 90 0 11 41 c9 35 8 41 -6 46 -9 3 -25 14 -36
24 -21 18 -22 18 -85 -46z"/>
<path d="M304 196 c-28 -28 -34 -41 -34 -78 0 -50 18 -82 60 -103 101 -52 207
54 155 155 -21 42 -53 60 -103 60 -37 0 -50 -6 -78 -34z m96 -41 c0 -20 5 -25
26 -25 31 0 28 -23 -4 -28 -12 -2 -22 -12 -24 -24 -5 -32 -28 -35 -28 -4 0 21
-5 26 -25 26 -32 0 -34 27 -2 32 14 2 23 11 25 26 5 31 32 29 32 -3z"/>
</g>
</svg>
